<svg xmlns="http://www.w3.org/2000/svg" id="Layer_1" x="0px" y="0px" viewBox="0 0 492.57838 186.98168"><g id="Trees" transform="translate(-1.917431 -1.8292523)"><path id="path262" d="M416.2 99.2c-.7 5-1.8 17.9-1.8 17.9l-1 37.6v3.9c-.6 6.1-9.3 6.5-10.3.2v-3.5s1.6-47.7 2.1-51.9c.3-3 1.3-5.8 0-7.6-14 3.9-30.5 10.7-30.5 10.7-.4 1.1-4.2 7.1-5.2 7.1-.8.1-1.5-.5-1.5-1.2-.1-1.1 3-3.7 3.5-5.4-.7-.7-7.4.7-9.5 1.3-1.2.3-4.2 1.9-4-.6.2-1.6 3.9-2.1 5.3-2.3 2.3-.3 4.4-.8 6.4-1.2-.7-1.2-2.6-1-2.8-2.5-.4-3.3 4.2-1.2 5.9 1.3 3.9-.7 22.9-7.3 31.6-10.7-.2-1.7.6-2.5.5-4.1-12.9-5.9-27.3-10.3-41.4-15-3.3 1.8-6.7 3.3-10.5 4.8-1.1.4-2.3 1.4-3.7.9-1.5-1.8 1.6-2.5 2.9-3 1.4-.6 8.7-3.5 10-5.2-1-1.9-4.7-5.7-5.1-6.1-.9-1.5-2.8-2-2.9-4.3 1-1.5 2.5.8 3.2 1.6 2.2 2.4 4.9 5.1 6.5 7.6 14.5 4.5 28.8 9.4 42.2 15 2.1-.3 2.1-7.4 2.2-7.8 0 0 .2-7.3 0-9.5-3.3-1.6-19.5-11.9-20.5-12-1.4 1.1-5.2 2.9-7.2 3.9-.7.4-1.6 1.2-2.4 1.2-.8 0-1.7-.8-1.6-1.7.1-1.4 2.5-2.3 3.7-2.8 1.6-.7 3-1.3 4.1-2.3-2.5-2.1-5.1-4.1-8.3-5.9-.9-.5-2.4-1.1-2.6-2.1-.1-.8.5-2 1.3-2.2 1.3-.3 2.3.7 3.2 1.3 2.8 1.7 8.7 5.9 8.7 5.9-.1-.4-.6-4.1-1-5.6-.4-1.4-1.7-4.9.6-4.5 1.1.2 1.3 2.4 1.6 3.7.6 2 2 7.4 2.1 8.7 4.5 2 7.7 5.2 12.4 6.9.2-.3.7-4.4-1-8.1-.6-1.1-2.2-2.3-2.2-3.3 0-.7.6-1.3 1.2-1.3 1.3-.1 2.6 2.1 3.3 3.3 1.9 2.9 1.2 9.5 1.2 9.5-.6 1.5 2.2 2.5 4.1 3.4.5-1.3 1.1-4.4 1.2-5.1.3-1.5.1-4 .1-4-.2-3.9-.5-7.4-.9-11.5-.3-3.2-.7-6.4-1.3-9-.3-1.2-1-2.5-1.5-3.7-1.5-3.7-2.1-8.4-3.6-12-.4-.1-.8-.3-1.1-.5-2.7 1.1-5.5 2-8.8 2.9-.7.2-2.4.9-3.1.5-.3-.2-.8-1.1-.4-1.8.3-.7 2-.9 2.8-1.1 3-.8 6.1-2 8.5-2.8 0-.5 0-1 .1-1.4.5-.9-4.7-4.9-4.8-6 0-.7.4-1.2 1.1-1.3 1.2-.1 4.6 5.3 5.8 5.3.5 0 1.2-.1 1.5.1 1.8-2.2 2.4-5.5 4-8.3.3-.6 1.1-2 2.4-1.6 1.6.5-.1 2.7-.5 3.6-.5 1-.8 1.9-1.2 2.9-1 2.6-1.7 4-2.8 5.5l-.1 2.3c-.4 1.7 3 12.5 5 15.2 1.9-2 2.9-6 4.8-8.9.4-.6 2.6-3.5 3.2-1.4.3 1-1.3 2.4-1.6 2.9-1.8 2.9-2.7 6.8-4.8 9.3 1.1 7 1.3 14.9 2.7 22.2 1.2-.4 8.1-17.9 11.5-25.1-.5-.6-.2-1.6-.3-2.6-1.2-2.5-1.5-7.4-1.9-10-.3-1.4-.9-3.1.8-3.2 3.5-.4 1.5 9.8 3.5 11.5.7-.9 1-2.2 1.5-3.5.9-2.4 1.6-4.6 2.5-7.5.4-1.4 1-4.8 3-3-.6 3.6-2.2 7.4-3.5 11-.5 1.4-1.9 3.6-.5 4.4 4.1-.9 6.7-3.6 10.5-5.2.8-.3 3.4-1.4 3.7 0 .3 1.3-2.3 1.7-3.2 2.2-3.7 1.6-6.5 4.2-10.8 5.1-.5.9-1 1.8-2.4 1.8-3.8 8.3-7.3 16.8-10.8 25.3 2.4-.5 4.2-2.5 6.1-4.2.8-.8 1.7-1.7 2.7-2.5.8-.7 2-2 3.3-1.2.4.9-1.6 2-2.2 2.6-.6.5-5.9 5.6-9.4 7.3-.5 1-1 1.8-1.9 2.3-.3 2-.6 4.1-1.2 5.8-.3 1.9 0 4.2-.1 6.3v3.4c-.2.3 0 1-.1 1.4.2 3.2-1 6.2-.8 8.6 1.3-.2 2.7-.9 4.1-1.5 2-.8 4-1.6 5.5-2.8.1 0 .9-7 2.1-10.5.3-1.1.5-2.6 1.6-2.3 1.3.3.3 2.6.1 3.4-1 2.6-1 5.7-1.6 8.7 4.4-.2 16.9-5.8 22.6-9.2.1-2.6.8-5.3 1.7-7.5.5-1.1.8-2.8 1.7-2.9 2.5-.3.4 3.3-.1 4.5-.6 1.5-.9 3.3-1 4.8 2.4-.3 3.8-2.2 5-3.7.7-.6 3.9-4.2 4.6-6.1 0-1.7.4-2.8 1.1-4.5.5-1.1 1-2.7 1.5-2.9.7-.3 1.7.2 1.8.7.2.8-.6 2.3-1 3-.4 1-1 1.7-1 2.9 5.9-2.8 11.3-8.1 17.3-11.9 1.1-.7 3.8-2.3 3.9-.1.1 1.4-3.9 3.3-4.9 3.9-5.2 3.6-9.9 7.8-15.6 10.7-.6 1.5-6.2 7.4-6.7 8.1 7.7 1.7 15.5 1.1 15.5 1.1 2.2.3 6-.2 5.7 1.9-.1 1.4-4.3.3-6.6.5-8 0-14.1-1.4-16.1-1.2-1.6.2-24.7 10.5-26.5 12 1 1.1 2.4 1.5 4.1 2.2 1.2.5 3.9 1 3.9 2.5 0 2-2.4.7-3.3.3-2.6-1-6.3-3.3-7.6-3.7 0 0-7.1 2.9-10 4.1-.2 1.4.4 2 .4 3.2 4.4 1.8 8.9 4 13.2 5.5 0 0 9.1 3.5 11.3 5.1.5.4 1.9 1.7 3.7 2.4 5.5 2 15.3 3.1 14.1 6.7-.6 2-15.1-4.6-16.1-3.8 0 0 5.5 9 2.9 9.7-2.6.7-3.7-8.2-6.1-9.9-4.7-3.4-24.7-10.7-24.7-10.7z"/><path id="path262_2_" d="M452.5 128.2c-.4 2.8-1 10.1-1 10.1l-.6 21.2v2.2c-.3 3.5-5.2 3.6-5.8.1v-1.9s.9-26.9 1.2-29.2c.2-1.7.8-3.3 0-4.3-7.9 2.2-17.2 6-17.2 6-.2.6-2.4 4-2.9 4s-.8-.3-.9-.7c0-.6 1.7-2.1 1.9-3-.4-.4-4.2.4-5.4.7-.7.2-2.4 1-2.3-.4.1-.9 2.2-1.2 3-1.3 1.3-.2 2.5-.4 3.6-.7-.4-.7-1.5-.6-1.6-1.4-.3-1.9 2.3-.7 3.3.7 2.2-.4 12.9-4.1 17.8-6-.1-1 .3-1.4.3-2.3-7.3-3.3-15.4-5.8-23.3-8.5-1.8 1-3.8 1.8-5.9 2.7-.6.3-1.3.8-2.1.5-.8-1 .9-1.4 1.6-1.7.8-.3 4.9-2 5.7-2.9-.6-1.1-2.6-3.2-2.9-3.4-.5-.8-1.6-1.1-1.6-2.4.6-.8 1.4.5 1.8.9 1.2 1.4 2.8 2.9 3.7 4.3 8.2 2.6 16.2 5.3 23.8 8.5 1.2-.2 1.2-4.2 1.2-4.4 0 0 .1-4.1 0-5.4-1.9-.9-11-6.7-11.5-6.8-.8.6-2.9 1.6-4.1 2.2-.4.2-.9.7-1.3.7-.5 0-.9-.5-.9-1 0-.8 1.4-1.3 2.1-1.6.9-.4 1.7-.7 2.3-1.3-1.4-1.2-2.9-2.3-4.7-3.3-.5-.3-1.4-.6-1.5-1.2-.1-.5.3-1.1.7-1.2.7-.2 1.3.4 1.8.7 1.6.9 4.9 3.3 4.9 3.3 0-.2-.3-2.3-.6-3.1-.2-.8-1-2.8.4-2.6.6.1.7 1.3.9 2.1.3 1.1 1.1 4.2 1.2 4.9 2.5 1.1 4.4 2.9 7 3.9.1-.2.4-2.5-.5-4.6-.3-.6-1.2-1.3-1.2-1.9 0-.4.4-.7.7-.7.7-.1 1.5 1.2 1.9 1.8 1.1 1.7.7 5.4.7 5.4-.3.9 1.2 1.4 2.3 1.9.3-.7.6-2.5.7-2.9.2-.8.1-2.3.1-2.3-.1-2.2-.3-4.1-.5-6.5-.2-1.8-.4-3.6-.8-5.1-.2-.7-.6-1.4-.8-2.1-.8-2.1-1.2-4.7-2-6.8l-.6-.3c-1.5.6-3.1 1.1-4.9 1.6-.4.1-1.3.5-1.8.3-.2-.1-.5-.6-.2-1 .2-.4 1.1-.5 1.6-.6 1.7-.5 3.4-1.1 4.8-1.6 0-.3 0-.6.1-.8.3-.5-2.7-2.8-2.7-3.4 0-.4.2-.7.6-.7.7 0 2.6 3 3.3 3 .3 0 .7-.1.9.1 1-1.3 1.4-3.1 2.3-4.7.2-.3.6-1.2 1.3-.9.9.3-.1 1.5-.3 2-.3.6-.5 1.1-.7 1.6-.6 1.5-1 2.2-1.6 3.1l-.1 1.3c-.2 1 1.7 7 2.8 8.6 1.1-1.1 1.6-3.4 2.7-5 .2-.3 1.5-1.9 1.8-.8.2.5-.7 1.3-.9 1.6-1 1.6-1.5 3.9-2.7 5.3.6 3.9.8 8.4 1.5 12.5.7-.2 4.6-10.1 6.5-14.1-.3-.3-.1-.9-.2-1.5-.7-1.4-.8-4.2-1.1-5.7-.2-.8-.5-1.7.4-1.8 1.9-.2.9 5.5 1.9 6.5.4-.5.6-1.2.9-1.9.5-1.4.9-2.6 1.4-4.2.2-.8.6-2.7 1.7-1.7-.3 2-1.2 4.2-1.9 6.2-.3.8-1 2-.3 2.5 2.3-.5 3.8-2 5.9-2.9.4-.2 1.9-.8 2.1 0 .1.7-1.3 1-1.8 1.2-2.1.9-3.7 2.4-6.1 2.9-.3.5-.6 1-1.3 1-2.1 4.7-4.1 9.4-6.1 14.3 1.4-.3 2.4-1.4 3.4-2.4.5-.4 1-1 1.5-1.4.5-.4 1.1-1.1 1.9-.7.2.5-.9 1.1-1.2 1.5-.3.3-3.3 3.1-5.3 4.1-.3.5-.5 1-1.1 1.3-.2 1.2-.3 2.3-.7 3.3-.1 1.1 0 2.4-.1 3.5v2c-.1.1 0 .5-.1.8.1 1.8-.5 3.5-.4 4.9.8-.1 1.5-.5 2.3-.9 1.1-.5 2.3-.9 3.1-1.6.1 0 .5-3.9 1.2-5.9.1-.6.3-1.5.9-1.3.7.2.2 1.5 0 1.9-.6 1.5-.6 3.2-.9 4.9 2.5-.1 9.5-3.3 12.7-5.2.1-1.5.5-3 1-4.2.3-.6.5-1.6 1-1.6 1.4-.2.2 1.9-.1 2.6-.3.8-.5 1.9-.5 2.7 1.3-.2 2.2-1.2 2.8-2.1.4-.3 2.2-2.4 2.6-3.4 0-1 .2-1.6.6-2.6.3-.6.6-1.5.9-1.6.4-.2 1 .1 1 .4.1.5-.4 1.3-.6 1.7-.2.6-.6.9-.5 1.6 3.3-1.6 6.4-4.6 9.7-6.7.6-.4 2.1-1.3 2.2-.1 0 .8-2.2 1.8-2.7 2.2-2.9 2-5.6 4.4-8.8 6-.3.9-3.5 4.2-3.8 4.6 4.4.9 8.7.6 8.7.6 1.2.1 3.4-.1 3.2 1.1-.1.8-2.4.2-3.7.3-4.5 0-8-.8-9.1-.7-.9.1-13.9 5.9-14.9 6.8.5.6 1.4.9 2.3 1.2.7.3 2.2.6 2.2 1.4 0 1.2-1.4.4-1.9.2-1.5-.5-3.6-1.8-4.3-2.1 0 0-4 1.6-5.7 2.3-.1.8.2 1.1.2 1.8 2.5 1 5 2.3 7.5 3.1 0 0 5.1 2 6.4 2.9.3.2 1.1 1 2.1 1.3 3.1 1.1 8.6 1.8 8 3.8-.4 1.1-8.5-2.6-9.1-2.1 0 0 3.1 5.1 1.6 5.5-1.5.4-2.1-4.6-3.4-5.6-2.7-1.9-14-6-14-6z"/></g><g id="Shapes" transform="translate(-1.917431 -1.8292523)"><path id="rect12" fill="#e67d20" d="M360.89999 104.4h3.8v4.0999999h-3.8z"/><path id="rect14" fill="#d93f1c" d="M375.70001 44.099998h4.0999999v4.5H375.70001z"/><path id="rect16" fill="#da5016" d="M433.10001 75.800003h8.3000002v8.8000002H433.10001z"/><path id="rect18" fill="#e06b1e" d="M379.70001 75.900002h8.3000002v8.8999996H379.70001z"/><path id="rect20" fill="#e67c1e" d="M404.60001 101.5h11.5v12.7h-11.5z"/><circle id="circle22" class="st8" cx="443.20001" cy="110.1" r="5.0999999" fill="#d83c18"/><circle id="circle24" class="st8" cx="359.10001" cy="65.800003" r="2.0999999" fill="#d83c18"/><circle id="circle26" cx="461" cy="66" r="2.9000001" fill="#e1421e"/><path id="rect28" fill="#cc200a" d="M428.29999 46.299999h4.0999999v4.0999999H428.29999z"/><path id="rect30" fill="#db571f" d="M408.10001 65.199997h9.8999996v10.8H408.10001z"/><path id="polygon32" fill="#d02e1a" d="M407.3 20.1l-4.8 8.4h9.6z"/><path id="polygon34" fill="#e06a1c" d="M478 106.3l-3.1 5.5 6.3-.1z"/></g><g id="Silva" transform="translate(-6.0362718 -14.729699)"><circle id="circle312" cx="108.5" cy="70.900002" r="12.8" fill="#f28a27"/><path id="path314" d="M143.7 58.3h20.4v85.4c0 5.7-.8 12.1 2.9 14.1 2.2 1.2 6 1 8.7.8v17.1c-5.4 1.5-12 1.5-17 .2-4.9-1.2-8.8-3.8-11.3-7.6-2.6-3.9-3.7-9-3.7-15.2V58.3z"/><path id="path316" d="M76.8 115.6H57.5c-.2-3.9-1.9-7-4.7-9-3.5-2.5-8.6-3.1-13.4-2.8-4.7.3-8.8 2.7-10.6 5.8-1.1 1.9-1.6 5.4-.4 7.8 2.1 4.3 7.7 4.9 13.3 5.6 3.9.5 7.8 1 11.3 1.6 7.8 1.2 13.5 3.2 18.3 7.4 4.6 4.1 7.5 10.5 7.2 18.6-.2 7.7-3.7 13.7-8 17.7-4.3 3.9-11 6.9-17.7 8.1-7.9 1.5-16.4 1-23.1-.8-9.8-2.6-17.4-8.7-21.3-17.3-1.3-2.9-2.4-6.1-2.3-10.4h19c.8 10.3 8 14.1 19.9 13.6 5.9-.3 11.7-2.3 13.8-6.2 1.2-2.4 1.1-6.5-.1-8.8-2.1-3.9-6-4.5-11.4-5.1-2.8-.3-5.7-.7-8.1-1-5.3-.6-10.8-1.2-15.3-3-4.7-1.8-7.8-4.2-10.6-7.8-2.6-3.3-4.7-7.8-4.8-13.6-.1-9.7 4.4-15.8 9.9-20.1 4.3-3.3 9.5-5.6 15.8-6.7 2.1-.4 4.6-.7 7.1-.8 5.3-.3 10 .6 14 1.8 8.2 2.4 14 6.7 18 13.4 1.8 3.1 3.5 7 3.5 12z"/><path id="path318" d="M350.5 158.9v15c-4 2-9.5 3-14.4 1.8-5.4-1.3-9.2-5.2-10-11.1-.8.7-1.4 1.9-2.1 2.8-6.4 7.2-18.9 11.8-32.4 8.7-11.3-2.6-19.7-9.9-21.4-21.7-1.1-7.2.7-13 3.4-17.4 4.1-6.6 11.1-10.8 20-12.3 3.1-.5 6.3-.7 9.8-1 6.6-.5 13.5-.9 20-1.4.2-7.3 0-13.2-4.3-16.2-3.4-2.3-9.1-2.7-13.8-2-6.8 1-11.1 4.7-11.7 11.8h-19.7c1.6-18.4 13.9-26.6 33-27.4 17.9-.8 30.1 5.6 34.4 18.9 2.1 6.4 1.9 16.5 1.9 24.7V152c0 2.4-.1 4.7.7 5.9 1 1.4 3.7 1.7 6.6 1zm-44.7-20.2c-2.8.2-5.3.3-7.7 1-2.3.7-4 1.8-5.6 3.1-1.6 2-2.9 3.9-2.9 7.3.1 6.5 5.5 10.4 12 10.4 14.1.1 22.9-8.2 21.7-23.2-5.6.3-11.7 1-17.5 1.4z"/><path id="path320" d="M202 92.2s14.1 39.6 21.1 59.4c6.8-19.7 13.3-39.7 20.1-59.4h20.9c-10.1 28.3-20.4 56.4-30.6 84.7h-21.6c-10.5-28-31.4-84.7-31.4-84.7z"/><path id="rect322" d="M97.900002 92.300003h20.799999v84.599998H97.900002z"/></g><text x="-1.4941406" y="182.21149" id="text845" style="line-height:1.25" font-weight="400" font-size="24px" font-family="sans-serif" letter-spacing="0" word-spacing="0"><tspan id="tspan843" x="0" y="182.21149" style="-inkscape-font-specification:'Arial Nova'" font-size="22px" font-family="Arial" letter-spacing="3.19000006px">high quality ribosomal RNA databases</tspan></text></svg>